# xmcd
# 
# Track frame offsets:
#     150
#     32092
#     54022
#     93562
#     110570
#     140667
# 
# Disc length: 2382
# 
# Revision: 0
# Processed by: cddbd v1.5.2PL0 Copyright (c) Steve Scherf et al.
# Submitted via: BonkEnc v1.0.8
# 
DISCID=4b094c06
DTITLE=今田勝 - 哀愁のカーニヴァル
DYEAR=1981
DGENRE=Fusion
TTITLE0=Carnival
TTITLE1=Ripples In Recife
TTITLE2=Sea Weeds
TTITLE3=Surf Dance
TTITLE4=Sunset Walk
TTITLE5=Gentle Breeze
EXTD=
EXTT0=
EXTT1=
EXTT2=
EXTT3=
EXTT4=
EXTT5=
PLAYORDER=
